<svg width="73" height="68" viewBox="0 0 73 68" fill="none" xmlns="http://www.w3.org/2000/svg">
<g clip-path="url(#clip0_99_146)">
<rect x="15" y="8.68262" width="50" height="50" rx="5" transform="rotate(-10 15 8.68262)" fill="url(#paint0_linear_99_146)"/>
<path d="M29.9144 21.2845C32.6339 20.805 34.4497 18.2117 33.9702 15.4922C33.4907 12.7728 30.8974 10.9569 28.1779 11.4364C25.4585 11.916 23.6426 14.5093 24.1221 17.2287C24.6017 19.9482 27.195 21.764 29.9144 21.2845Z" fill="#392A0C"/>
<path d="M54.5345 16.9427C57.254 16.4632 59.0699 13.8699 58.5903 11.1504C58.1108 8.43098 55.5175 6.61513 52.7981 7.09465C50.0786 7.57417 48.2627 10.1675 48.7423 12.8869C49.2218 15.6064 51.8151 17.4222 54.5345 16.9427Z" fill="#392A0C"/>
<path d="M32.5199 36.056C35.2394 35.5765 37.0552 32.9832 36.5757 30.2637C36.0962 27.5443 33.5029 25.7284 30.7834 26.2079C28.0639 26.6874 26.2481 29.2807 26.7276 32.0002C27.2071 34.7197 29.8004 36.5355 32.5199 36.056Z" fill="#392A0C"/>
<path d="M57.14 31.7152C59.8595 31.2357 61.6753 28.6424 61.1958 25.9229C60.7163 23.2034 58.123 21.3876 55.4035 21.8671C52.6841 22.3466 50.8682 24.9399 51.3477 27.6594C51.8272 30.3789 54.4205 32.1947 57.14 31.7152Z" fill="#392A0C"/>
<path d="M35.1244 50.8285C37.8439 50.349 39.6597 47.7557 39.1802 45.0362C38.7007 42.3167 36.1074 40.5009 33.3879 40.9804C30.6684 41.4599 28.8526 44.0532 29.3321 46.7727C29.8116 49.4921 32.4049 51.308 35.1244 50.8285Z" fill="#392A0C"/>
<path d="M59.7445 46.4867C62.464 46.0072 64.2798 43.4139 63.8003 40.6944C63.3208 37.9749 60.7275 36.1591 58.008 36.6386C55.2886 37.1181 53.4727 39.7114 53.9522 42.4309C54.4317 45.1503 57.025 46.9662 59.7445 46.4867Z" fill="#392A0C"/>
<rect y="18" width="50" height="50" rx="5" fill="url(#paint1_linear_99_146)"/>
<path d="M12.5 33C15.2614 33 17.5 30.7614 17.5 28C17.5 25.2386 15.2614 23 12.5 23C9.73858 23 7.5 25.2386 7.5 28C7.5 30.7614 9.73858 33 12.5 33Z" fill="#6A5326"/>
<path d="M37.5 33C40.2614 33 42.5 30.7614 42.5 28C42.5 25.2386 40.2614 23 37.5 23C34.7386 23 32.5 25.2386 32.5 28C32.5 30.7614 34.7386 33 37.5 33Z" fill="#6A5326"/>
<path d="M12.5 48C15.2614 48 17.5 45.7614 17.5 43C17.5 40.2386 15.2614 38 12.5 38C9.73858 38 7.5 40.2386 7.5 43C7.5 45.7614 9.73858 48 12.5 48Z" fill="#6A5326"/>
<path d="M37.5 48C40.2614 48 42.5 45.7614 42.5 43C42.5 40.2386 40.2614 38 37.5 38C34.7386 38 32.5 40.2386 32.5 43C32.5 45.7614 34.7386 48 37.5 48Z" fill="#6A5326"/>
<path d="M12.5 63C15.2614 63 17.5 60.7614 17.5 58C17.5 55.2386 15.2614 53 12.5 53C9.73858 53 7.5 55.2386 7.5 58C7.5 60.7614 9.73858 63 12.5 63Z" fill="#6A5326"/>
<path d="M37.5 63C40.2614 63 42.5 60.7614 42.5 58C42.5 55.2386 40.2614 53 37.5 53C34.7386 53 32.5 55.2386 32.5 58C32.5 60.7614 34.7386 63 37.5 63Z" fill="#6A5326"/>
</g>
<defs>
<linearGradient id="paint0_linear_99_146" x1="22.4629" y1="8.68262" x2="57.5371" y2="58.6826" gradientUnits="userSpaceOnUse">
<stop offset="0.346054" stop-color="#C4A66E"/>
<stop offset="0.346154" stop-color="#AA8D57"/>
</linearGradient>
<linearGradient id="paint1_linear_99_146" x1="5.59611e-07" y1="18.0721" x2="50" y2="67.9279" gradientUnits="userSpaceOnUse">
<stop offset="0.394123" stop-color="#D9B97C"/>
<stop offset="0.394223" stop-color="#C4A66E"/>
</linearGradient>
<clipPath id="clip0_99_146">
<rect width="72.9228" height="67.9998" fill="white"/>
</clipPath>
</defs>
</svg>
